<svg width="1920" height="1080" xmlns="http://www.w3.org/2000/svg">
  <defs>
    <linearGradient id="darkGradient" x1="0%" y1="0%" x2="100%" y2="100%">
      <stop offset="0%" style="stop-color:#0a0a0a;stop-opacity:1" />
      <stop offset="50%" style="stop-color:#1a1a1a;stop-opacity:1" />
      <stop offset="100%" style="stop-color:#0a0a0a;stop-opacity:1" />
    </linearGradient>
  </defs>
  
  <!-- Background -->
  <rect width="1920" height="1080" fill="url(#darkGradient)"/>
  
  <!-- Piano keys pattern -->
  <g id="pianoKeys">
    <!-- White keys -->
    <rect x="0" y="400" width="120" height="680" fill="#f5f5f5" stroke="#1a1a1a" stroke-width="2"/>
    <rect x="120" y="400" width="120" height="680" fill="#f8f8f8" stroke="#1a1a1a" stroke-width="2"/>
    <rect x="240" y="400" width="120" height="680" fill="#f5f5f5" stroke="#1a1a1a" stroke-width="2"/>
    <rect x="360" y="400" width="120" height="680" fill="#f8f8f8" stroke="#1a1a1a" stroke-width="2"/>
    <rect x="480" y="400" width="120" height="680" fill="#f5f5f5" stroke="#1a1a1a" stroke-width="2"/>
    <rect x="600" y="400" width="120" height="680" fill="#f8f8f8" stroke="#1a1a1a" stroke-width="2"/>
    <rect x="720" y="400" width="120" height="680" fill="#f5f5f5" stroke="#1a1a1a" stroke-width="2"/>
    <rect x="840" y="400" width="120" height="680" fill="#f8f8f8" stroke="#1a1a1a" stroke-width="2"/>
    <rect x="960" y="400" width="120" height="680" fill="#f5f5f5" stroke="#1a1a1a" stroke-width="2"/>
    <rect x="1080" y="400" width="120" height="680" fill="#f8f8f8" stroke="#1a1a1a" stroke-width="2"/>
    <rect x="1200" y="400" width="120" height="680" fill="#f5f5f5" stroke="#1a1a1a" stroke-width="2"/>
    <rect x="1320" y="400" width="120" height="680" fill="#f8f8f8" stroke="#1a1a1a" stroke-width="2"/>
    <rect x="1440" y="400" width="120" height="680" fill="#f5f5f5" stroke="#1a1a1a" stroke-width="2"/>
    <rect x="1560" y="400" width="120" height="680" fill="#f8f8f8" stroke="#1a1a1a" stroke-width="2"/>
    <rect x="1680" y="400" width="120" height="680" fill="#f5f5f5" stroke="#1a1a1a" stroke-width="2"/>
    <rect x="1800" y="400" width="120" height="680" fill="#f8f8f8" stroke="#1a1a1a" stroke-width="2"/>
    
    <!-- Black keys -->
    <rect x="80" y="400" width="80" height="400" fill="#0a0a0a" stroke="#000000" stroke-width="2"/>
    <rect x="200" y="400" width="80" height="400" fill="#0a0a0a" stroke="#000000" stroke-width="2"/>
    <rect x="440" y="400" width="80" height="400" fill="#0a0a0a" stroke="#000000" stroke-width="2"/>
    <rect x="560" y="400" width="80" height="400" fill="#0a0a0a" stroke="#000000" stroke-width="2"/>
    <rect x="680" y="400" width="80" height="400" fill="#0a0a0a" stroke="#000000" stroke-width="2"/>
    <rect x="920" y="400" width="80" height="400" fill="#0a0a0a" stroke="#000000" stroke-width="2"/>
    <rect x="1040" y="400" width="80" height="400" fill="#0a0a0a" stroke="#000000" stroke-width="2"/>
    <rect x="1280" y="400" width="80" height="400" fill="#0a0a0a" stroke="#000000" stroke-width="2"/>
    <rect x="1400" y="400" width="80" height="400" fill="#0a0a0a" stroke="#000000" stroke-width="2"/>
    <rect x="1520" y="400" width="80" height="400" fill="#0a0a0a" stroke="#000000" stroke-width="2"/>
    <rect x="1760" y="400" width="80" height="400" fill="#0a0a0a" stroke="#000000" stroke-width="2"/>
  </g>
  
  <!-- Subtle light effect -->
  <ellipse cx="960" cy="300" rx="800" ry="200" fill="#d4af37" opacity="0.05"/>
  
  <!-- Text watermark -->
  <text x="960" y="200" font-family="serif" font-size="48" fill="#d4af37" opacity="0.3" text-anchor="middle" font-style="italic">
    EnHarmonie
  </text>
  <text x="960" y="250" font-family="sans-serif" font-size="20" fill="#f5f5dc" opacity="0.2" text-anchor="middle">
    Image placeholder - Remplacez par votre photo
  </text>
</svg>

